<mxfile host="65bd71144e" scale="1" border="10">
    <diagram id="Ht1M8jgEwFfnCIfOTk4-" name="Page-1">
        <mxGraphModel dx="1107" dy="629" grid="1" gridSize="10" guides="1" tooltips="1" connect="1" arrows="1" fold="1" page="1" pageScale="1" pageWidth="1169" pageHeight="827" background="#FFFFFF" math="0" shadow="0">
            <root>
                <mxCell id="0"/>
                <mxCell id="1" parent="0"/>
                <mxCell id="VV7PKbn4YZ10Wz0xjo53-1" value="AWS Cloud" style="points=[[0,0],[0.25,0],[0.5,0],[0.75,0],[1,0],[1,0.25],[1,0.5],[1,0.75],[1,1],[0.75,1],[0.5,1],[0.25,1],[0,1],[0,0.75],[0,0.5],[0,0.25]];outlineConnect=0;gradientColor=none;html=1;whiteSpace=wrap;fontSize=12;fontStyle=0;container=1;pointerEvents=0;collapsible=0;recursiveResize=0;shape=mxgraph.aws4.group;grIcon=mxgraph.aws4.group_aws_cloud_alt;strokeColor=#232F3E;fillColor=none;verticalAlign=top;align=left;spacingLeft=30;fontColor=#232F3E;dashed=0;" parent="1" vertex="1">
                    <mxGeometry x="80" y="120" width="400" height="620" as="geometry"/>
                </mxCell>
                <mxCell id="VV7PKbn4YZ10Wz0xjo53-2" value="Region" style="points=[[0,0],[0.25,0],[0.5,0],[0.75,0],[1,0],[1,0.25],[1,0.5],[1,0.75],[1,1],[0.75,1],[0.5,1],[0.25,1],[0,1],[0,0.75],[0,0.5],[0,0.25]];outlineConnect=0;gradientColor=none;html=1;whiteSpace=wrap;fontSize=12;fontStyle=0;container=1;pointerEvents=0;collapsible=0;recursiveResize=0;shape=mxgraph.aws4.group;grIcon=mxgraph.aws4.group_region;strokeColor=#147EBA;fillColor=none;verticalAlign=top;align=left;spacingLeft=30;fontColor=#147EBA;dashed=1;" parent="VV7PKbn4YZ10Wz0xjo53-1" vertex="1">
                    <mxGeometry x="20" y="40" width="360" height="560" as="geometry"/>
                </mxCell>
                <mxCell id="VV7PKbn4YZ10Wz0xjo53-40" value="AMI &lt;br&gt;(Windows Server 2022)" style="sketch=0;outlineConnect=0;fontColor=#232F3E;gradientColor=none;fillColor=#D45B07;strokeColor=none;dashed=0;verticalLabelPosition=bottom;verticalAlign=top;align=center;html=1;fontSize=12;fontStyle=0;aspect=fixed;pointerEvents=1;shape=mxgraph.aws4.ami;" parent="VV7PKbn4YZ10Wz0xjo53-2" vertex="1">
                    <mxGeometry x="131" y="450" width="48" height="48" as="geometry"/>
                </mxCell>
                <mxCell id="VV7PKbn4YZ10Wz0xjo53-46" value="Amazon S3&lt;br&gt;(AMD &amp;amp; NVIDIA&lt;br&gt;Drivers)" style="sketch=0;outlineConnect=0;fontColor=#232F3E;gradientColor=none;fillColor=#3F8624;strokeColor=none;dashed=0;verticalLabelPosition=bottom;verticalAlign=top;align=center;html=1;fontSize=12;fontStyle=0;aspect=fixed;pointerEvents=1;shape=mxgraph.aws4.bucket_with_objects;" parent="VV7PKbn4YZ10Wz0xjo53-2" vertex="1">
                    <mxGeometry x="251" y="440.8" width="55" height="57.2" as="geometry"/>
                </mxCell>
                <mxCell id="VV7PKbn4YZ10Wz0xjo53-71" value="" style="group" parent="VV7PKbn4YZ10Wz0xjo53-2" vertex="1" connectable="0">
                    <mxGeometry x="26" y="40" width="310" height="390" as="geometry"/>
                </mxCell>
                <mxCell id="VV7PKbn4YZ10Wz0xjo53-72" value="AWS CloudFormation (CloudGraphicsOnG5)" style="points=[[0,0],[0.25,0],[0.5,0],[0.75,0],[1,0],[1,0.25],[1,0.5],[1,0.75],[1,1],[0.75,1],[0.5,1],[0.25,1],[0,1],[0,0.75],[0,0.5],[0,0.25]];outlineConnect=0;gradientColor=none;html=1;whiteSpace=wrap;fontSize=12;fontStyle=0;container=0;pointerEvents=0;collapsible=0;recursiveResize=0;shape=mxgraph.aws4.group;grIcon=mxgraph.aws4.group_aws_step_functions_workflow;strokeColor=#CD2264;fillColor=none;verticalAlign=top;align=left;spacingLeft=30;fontColor=#CD2264;dashed=1;" parent="VV7PKbn4YZ10Wz0xjo53-71" vertex="1">
                    <mxGeometry width="310" height="390" as="geometry"/>
                </mxCell>
                <mxCell id="VV7PKbn4YZ10Wz0xjo53-73" value="" style="sketch=0;points=[[0,0,0],[0.25,0,0],[0.5,0,0],[0.75,0,0],[1,0,0],[0,1,0],[0.25,1,0],[0.5,1,0],[0.75,1,0],[1,1,0],[0,0.25,0],[0,0.5,0],[0,0.75,0],[1,0.25,0],[1,0.5,0],[1,0.75,0]];points=[[0,0,0],[0.25,0,0],[0.5,0,0],[0.75,0,0],[1,0,0],[0,1,0],[0.25,1,0],[0.5,1,0],[0.75,1,0],[1,1,0],[0,0.25,0],[0,0.5,0],[0,0.75,0],[1,0.25,0],[1,0.5,0],[1,0.75,0]];outlineConnect=0;fontColor=#232F3E;gradientColor=#F34482;gradientDirection=north;fillColor=#BC1356;strokeColor=#ffffff;dashed=0;verticalLabelPosition=bottom;verticalAlign=top;align=center;html=1;fontSize=12;fontStyle=0;aspect=fixed;shape=mxgraph.aws4.resourceIcon;resIcon=mxgraph.aws4.cloudformation;" parent="VV7PKbn4YZ10Wz0xjo53-71" vertex="1">
                    <mxGeometry width="25" height="25" as="geometry"/>
                </mxCell>
                <mxCell id="VV7PKbn4YZ10Wz0xjo53-36" value="VPC" style="points=[[0,0],[0.25,0],[0.5,0],[0.75,0],[1,0],[1,0.25],[1,0.5],[1,0.75],[1,1],[0.75,1],[0.5,1],[0.25,1],[0,1],[0,0.75],[0,0.5],[0,0.25]];outlineConnect=0;gradientColor=none;html=1;whiteSpace=wrap;fontSize=12;fontStyle=0;container=1;pointerEvents=0;collapsible=0;recursiveResize=0;shape=mxgraph.aws4.group;grIcon=mxgraph.aws4.group_vpc;strokeColor=#248814;fillColor=none;verticalAlign=top;align=left;spacingLeft=30;fontColor=#AAB7B8;dashed=0;" parent="VV7PKbn4YZ10Wz0xjo53-71" vertex="1">
                    <mxGeometry x="25" y="30" width="270" height="330" as="geometry"/>
                </mxCell>
                <mxCell id="VV7PKbn4YZ10Wz0xjo53-37" value="Public subnet" style="points=[[0,0],[0.25,0],[0.5,0],[0.75,0],[1,0],[1,0.25],[1,0.5],[1,0.75],[1,1],[0.75,1],[0.5,1],[0.25,1],[0,1],[0,0.75],[0,0.5],[0,0.25]];outlineConnect=0;gradientColor=none;html=1;whiteSpace=wrap;fontSize=12;fontStyle=0;container=1;pointerEvents=0;collapsible=0;recursiveResize=0;shape=mxgraph.aws4.group;grIcon=mxgraph.aws4.group_security_group;grStroke=0;strokeColor=#248814;fillColor=#E9F3E6;verticalAlign=top;align=left;spacingLeft=30;fontColor=#248814;dashed=0;" parent="VV7PKbn4YZ10Wz0xjo53-36" vertex="1">
                    <mxGeometry x="27.5" y="30" width="220" height="270" as="geometry"/>
                </mxCell>
                <mxCell id="VV7PKbn4YZ10Wz0xjo53-78" value="&lt;font face=&quot;Courier New&quot;&gt;&lt;br&gt;ALLOW 8443 /0&lt;/font&gt;" style="text;whiteSpace=wrap;html=1;fontColor=#DD3522;" parent="VV7PKbn4YZ10Wz0xjo53-37" vertex="1">
                    <mxGeometry x="12.5" y="30" width="110" height="40" as="geometry"/>
                </mxCell>
                <mxCell id="VV7PKbn4YZ10Wz0xjo53-38" value="Security group" style="fillColor=none;strokeColor=#DD3522;verticalAlign=top;fontStyle=0;fontColor=#DD3522;" parent="VV7PKbn4YZ10Wz0xjo53-71" vertex="1">
                    <mxGeometry x="70" y="130" width="180" height="160" as="geometry"/>
                </mxCell>
                <mxCell id="VV7PKbn4YZ10Wz0xjo53-6" value="" style="sketch=0;outlineConnect=0;fontColor=#232F3E;gradientColor=none;fillColor=#D45B07;strokeColor=none;dashed=0;verticalLabelPosition=bottom;verticalAlign=top;align=center;html=1;fontSize=12;fontStyle=0;aspect=fixed;pointerEvents=1;shape=mxgraph.aws4.ec2_g5_instance;" parent="VV7PKbn4YZ10Wz0xjo53-71" vertex="1">
                    <mxGeometry x="138.5" y="186" width="48" height="48" as="geometry"/>
                </mxCell>
                <mxCell id="VV7PKbn4YZ10Wz0xjo53-131" value="" style="sketch=0;outlineConnect=0;fontColor=#232F3E;gradientColor=none;fillColor=#D45B07;strokeColor=none;dashed=0;verticalLabelPosition=bottom;verticalAlign=top;align=center;html=1;fontSize=12;fontStyle=0;aspect=fixed;pointerEvents=1;shape=mxgraph.aws4.g4dn;fontFamily=Helvetica;opacity=50;" parent="VV7PKbn4YZ10Wz0xjo53-71" vertex="1">
                    <mxGeometry x="174" y="170" width="30" height="30" as="geometry"/>
                </mxCell>
                <mxCell id="VV7PKbn4YZ10Wz0xjo53-130" value="" style="sketch=0;outlineConnect=0;fontColor=#232F3E;gradientColor=none;fillColor=#D45B07;strokeColor=none;dashed=0;verticalLabelPosition=bottom;verticalAlign=top;align=center;html=1;fontSize=12;fontStyle=0;aspect=fixed;pointerEvents=1;shape=mxgraph.aws4.g4ad_instance;fontFamily=Helvetica;opacity=50;" parent="VV7PKbn4YZ10Wz0xjo53-71" vertex="1">
                    <mxGeometry x="194" y="150" width="30" height="30" as="geometry"/>
                </mxCell>
                <mxCell id="VV7PKbn4YZ10Wz0xjo53-133" value="2" style="rounded=1;whiteSpace=wrap;html=1;fillColor=#ffe6cc;strokeColor=#d79b00;fontStyle=1;fontSize=22;labelBackgroundColor=none;glass=0;shadow=0;" parent="VV7PKbn4YZ10Wz0xjo53-71" vertex="1">
                    <mxGeometry x="94" y="170" width="30" height="28.5" as="geometry"/>
                </mxCell>
                <mxCell id="VV7PKbn4YZ10Wz0xjo53-99" style="edgeStyle=orthogonalEdgeStyle;rounded=0;orthogonalLoop=1;jettySize=auto;html=1;fontFamily=Helvetica;fontColor=#DD3522;sourcePerimeterSpacing=0;dashed=1;" parent="VV7PKbn4YZ10Wz0xjo53-2" source="VV7PKbn4YZ10Wz0xjo53-6" target="VV7PKbn4YZ10Wz0xjo53-40" edge="1">
                    <mxGeometry relative="1" as="geometry">
                        <Array as="points">
                            <mxPoint x="111" y="250"/>
                        </Array>
                    </mxGeometry>
                </mxCell>
                <mxCell id="VV7PKbn4YZ10Wz0xjo53-100" style="edgeStyle=orthogonalEdgeStyle;rounded=0;orthogonalLoop=1;jettySize=auto;html=1;dashed=1;fontFamily=Helvetica;fontColor=#DD3522;sourcePerimeterSpacing=0;" parent="VV7PKbn4YZ10Wz0xjo53-2" source="VV7PKbn4YZ10Wz0xjo53-40" target="VV7PKbn4YZ10Wz0xjo53-6" edge="1">
                    <mxGeometry relative="1" as="geometry">
                        <Array as="points">
                            <mxPoint x="191" y="474"/>
                        </Array>
                    </mxGeometry>
                </mxCell>
                <mxCell id="VV7PKbn4YZ10Wz0xjo53-104" style="edgeStyle=orthogonalEdgeStyle;rounded=0;orthogonalLoop=1;jettySize=auto;html=1;fontFamily=Helvetica;fontColor=#DD3522;sourcePerimeterSpacing=0;startArrow=classic;startFill=1;" parent="VV7PKbn4YZ10Wz0xjo53-2" source="VV7PKbn4YZ10Wz0xjo53-6" target="VV7PKbn4YZ10Wz0xjo53-46" edge="1">
                    <mxGeometry relative="1" as="geometry">
                        <Array as="points">
                            <mxPoint x="231" y="250"/>
                            <mxPoint x="231" y="469"/>
                        </Array>
                    </mxGeometry>
                </mxCell>
                <mxCell id="VV7PKbn4YZ10Wz0xjo53-134" value="4" style="rounded=1;whiteSpace=wrap;html=1;fillColor=#ffe6cc;strokeColor=#d79b00;fontStyle=1;fontSize=22;labelBackgroundColor=none;glass=0;shadow=0;" parent="VV7PKbn4YZ10Wz0xjo53-2" vertex="1">
                    <mxGeometry x="70" y="459.75" width="30" height="28.5" as="geometry"/>
                </mxCell>
                <mxCell id="VV7PKbn4YZ10Wz0xjo53-135" value="3" style="rounded=1;whiteSpace=wrap;html=1;fillColor=#ffe6cc;strokeColor=#d79b00;fontStyle=1;fontSize=22;labelBackgroundColor=none;glass=0;shadow=0;" parent="VV7PKbn4YZ10Wz0xjo53-2" vertex="1">
                    <mxGeometry x="310" y="459.75" width="30" height="28.5" as="geometry"/>
                </mxCell>
                <mxCell id="VV7PKbn4YZ10Wz0xjo53-95" style="edgeStyle=orthogonalEdgeStyle;rounded=0;orthogonalLoop=1;jettySize=auto;html=1;fontFamily=Helvetica;fontColor=#DD3522;sourcePerimeterSpacing=24;startArrow=classic;startFill=1;" parent="VV7PKbn4YZ10Wz0xjo53-1" source="VV7PKbn4YZ10Wz0xjo53-47" edge="1">
                    <mxGeometry relative="1" as="geometry">
                        <mxPoint x="210.5" y="251" as="targetPoint"/>
                    </mxGeometry>
                </mxCell>
                <mxCell id="VV7PKbn4YZ10Wz0xjo53-47" value="Internet Gateway (igw)" style="sketch=0;outlineConnect=0;fontColor=#232F3E;gradientColor=none;fillColor=#4D27AA;strokeColor=none;dashed=0;verticalLabelPosition=bottom;verticalAlign=top;align=center;html=1;fontSize=12;fontStyle=0;aspect=fixed;pointerEvents=1;shape=mxgraph.aws4.internet_gateway;" parent="VV7PKbn4YZ10Wz0xjo53-1" vertex="1">
                    <mxGeometry x="192" y="20" width="38" height="38" as="geometry"/>
                </mxCell>
                <mxCell id="VV7PKbn4YZ10Wz0xjo53-132" value="1" style="rounded=1;whiteSpace=wrap;html=1;fillColor=#ffe6cc;strokeColor=#d79b00;fontStyle=1;fontSize=22;labelBackgroundColor=none;glass=0;shadow=0;" parent="VV7PKbn4YZ10Wz0xjo53-1" vertex="1">
                    <mxGeometry x="240" y="7" width="30" height="28.5" as="geometry"/>
                </mxCell>
                <mxCell id="VV7PKbn4YZ10Wz0xjo53-90" style="edgeStyle=orthogonalEdgeStyle;rounded=0;orthogonalLoop=1;jettySize=auto;html=1;fontFamily=Helvetica;fontColor=#DD3522;startArrow=classic;startFill=1;" parent="1" source="VV7PKbn4YZ10Wz0xjo53-80" target="VV7PKbn4YZ10Wz0xjo53-84" edge="1">
                    <mxGeometry relative="1" as="geometry"/>
                </mxCell>
                <mxCell id="VV7PKbn4YZ10Wz0xjo53-80" value="User" style="sketch=0;outlineConnect=0;fontColor=#232F3E;gradientColor=none;fillColor=#232F3D;strokeColor=none;dashed=0;verticalLabelPosition=bottom;verticalAlign=top;align=center;html=1;fontSize=12;fontStyle=0;aspect=fixed;pointerEvents=1;shape=mxgraph.aws4.user;fontFamily=Helvetica;" parent="1" vertex="1">
                    <mxGeometry x="380" y="16" width="58" height="58" as="geometry"/>
                </mxCell>
                <mxCell id="VV7PKbn4YZ10Wz0xjo53-92" value="" style="group" parent="1" vertex="1" connectable="0">
                    <mxGeometry x="230" width="121.91999999999996" height="89" as="geometry"/>
                </mxCell>
                <mxCell id="VV7PKbn4YZ10Wz0xjo53-87" value="" style="sketch=0;points=[[0,0,0],[0.25,0,0],[0.5,0,0],[0.75,0,0],[1,0,0],[0,1,0],[0.25,1,0],[0.5,1,0],[0.75,1,0],[1,1,0],[0,0.25,0],[0,0.5,0],[0,0.75,0],[1,0.25,0],[1,0.5,0],[1,0.75,0]];outlineConnect=0;fontColor=#232F3E;gradientColor=#F78E04;gradientDirection=north;fillColor=#D05C17;strokeColor=#ffffff;dashed=0;verticalLabelPosition=bottom;verticalAlign=top;align=center;html=1;fontSize=12;fontStyle=0;aspect=fixed;shape=mxgraph.aws4.resourceIcon;resIcon=mxgraph.aws4.nice_dcv;fontFamily=Helvetica;" parent="VV7PKbn4YZ10Wz0xjo53-92" vertex="1">
                    <mxGeometry x="98" y="56.08" width="21.92" height="21.92" as="geometry"/>
                </mxCell>
                <mxCell id="VV7PKbn4YZ10Wz0xjo53-81" value="" style="sketch=0;points=[[0,0,0],[0.25,0,0],[0.5,0,0],[0.75,0,0],[1,0,0],[0,1,0],[0.25,1,0],[0.5,1,0],[0.75,1,0],[1,1,0],[0,0.25,0],[0,0.5,0],[0,0.75,0],[1,0.25,0],[1,0.5,0],[1,0.75,0]];outlineConnect=0;fontColor=#232F3E;gradientColor=#F78E04;gradientDirection=north;fillColor=#D05C17;strokeColor=#ffffff;dashed=0;verticalLabelPosition=bottom;verticalAlign=top;align=center;html=1;fontSize=12;fontStyle=0;aspect=fixed;shape=mxgraph.aws4.resourceIcon;resIcon=mxgraph.aws4.nice_dcv;fontFamily=Helvetica;" parent="VV7PKbn4YZ10Wz0xjo53-92" vertex="1">
                    <mxGeometry x="73" y="12" width="28" height="28" as="geometry"/>
                </mxCell>
                <mxCell id="VV7PKbn4YZ10Wz0xjo53-84" value="Amazon DCV Client" style="sketch=0;outlineConnect=0;gradientColor=none;fontColor=#545B64;strokeColor=none;fillColor=#879196;dashed=0;verticalLabelPosition=bottom;verticalAlign=top;align=center;html=1;fontSize=12;fontStyle=0;aspect=fixed;shape=mxgraph.aws4.illustration_devices;pointerEvents=1;fontFamily=Helvetica;" parent="VV7PKbn4YZ10Wz0xjo53-92" vertex="1">
                    <mxGeometry width="121.92" height="89" as="geometry"/>
                </mxCell>
                <mxCell id="VV7PKbn4YZ10Wz0xjo53-85" value="" style="sketch=0;points=[[0,0,0],[0.25,0,0],[0.5,0,0],[0.75,0,0],[1,0,0],[0,1,0],[0.25,1,0],[0.5,1,0],[0.75,1,0],[1,1,0],[0,0.25,0],[0,0.5,0],[0,0.75,0],[1,0.25,0],[1,0.5,0],[1,0.75,0]];outlineConnect=0;fontColor=#232F3E;gradientColor=#F78E04;gradientDirection=north;fillColor=#D05C17;strokeColor=#ffffff;dashed=0;verticalLabelPosition=bottom;verticalAlign=top;align=center;html=1;fontSize=12;fontStyle=0;aspect=fixed;shape=mxgraph.aws4.resourceIcon;resIcon=mxgraph.aws4.nice_dcv;fontFamily=Helvetica;" parent="VV7PKbn4YZ10Wz0xjo53-92" vertex="1">
                    <mxGeometry x="26" y="43" width="28" height="28" as="geometry"/>
                </mxCell>
                <mxCell id="VV7PKbn4YZ10Wz0xjo53-93" style="edgeStyle=orthogonalEdgeStyle;rounded=0;orthogonalLoop=1;jettySize=auto;html=1;fontFamily=Helvetica;fontColor=#DD3522;sourcePerimeterSpacing=24;startArrow=classic;startFill=1;" parent="1" source="VV7PKbn4YZ10Wz0xjo53-84" target="VV7PKbn4YZ10Wz0xjo53-47" edge="1">
                    <mxGeometry relative="1" as="geometry"/>
                </mxCell>
                <mxCell id="jzu-r__klpaP89rIrXe2-2" value="5" style="rounded=1;whiteSpace=wrap;html=1;fillColor=#ffe6cc;strokeColor=#d79b00;fontStyle=1;fontSize=22;labelBackgroundColor=none;glass=0;shadow=0;" parent="1" vertex="1">
                    <mxGeometry x="360" width="30" height="28.5" as="geometry"/>
                </mxCell>
            </root>
        </mxGraphModel>
    </diagram>
</mxfile>